<svg xmlns="http://www.w3.org/2000/svg" width="40" height="40" viewBox="0 0 40 40">
    <path fill="#FFF" fill-rule="evenodd" d="M40 4.286v31.428c0 1.19-.417 2.203-1.25 3.036-.833.833-1.845 1.25-3.036 1.25h-7.589V24.196h5.357l.804-6.071h-6.161v-3.84c0-.952.179-1.666.536-2.142.476-.536 1.28-.804 2.41-.804h3.215V5.982c-1.25-.178-2.798-.268-4.643-.268-2.381 0-4.271.7-5.67 2.098-1.399 1.4-2.098 3.349-2.098 5.849v4.464h-5.446v6.071h5.446V40H4.285c-1.19 0-2.202-.417-3.035-1.25C.417 37.917 0 36.905 0 35.714V4.286c0-1.19.417-2.203 1.25-3.036C2.083.417 3.095 0 4.286 0h31.428c1.19 0 2.203.417 3.036 1.25.833.833 1.25 1.845 1.25 3.036z"/>
</svg>
