<svg xmlns="http://www.w3.org/2000/svg" width="40" height="40" viewBox="0 0 40 40">
    <path fill="#FFF" fill-rule="evenodd" d="M20 9.732c1.845 0 3.557.461 5.134 1.384a10.298 10.298 0 0 1 3.75 3.75A9.991 9.991 0 0 1 30.268 20a9.991 9.991 0 0 1-1.384 5.134 10.298 10.298 0 0 1-3.75 3.75A9.991 9.991 0 0 1 20 30.268a9.991 9.991 0 0 1-5.134-1.384 10.298 10.298 0 0 1-3.75-3.75A9.991 9.991 0 0 1 9.732 20c0-1.845.461-3.557 1.384-5.134a10.298 10.298 0 0 1 3.75-3.75A9.991 9.991 0 0 1 20 9.732zm0 16.964c1.845 0 3.423-.654 4.732-1.964 1.31-1.31 1.964-2.887 1.964-4.732 0-1.845-.654-3.423-1.964-4.732-1.31-1.31-2.887-1.964-4.732-1.964-1.845 0-3.423.654-4.732 1.964-1.31 1.31-1.964 2.887-1.964 4.732 0 1.845.654 3.423 1.964 4.732 1.31 1.31 2.887 1.964 4.732 1.964zm13.125-17.41a2.782 2.782 0 0 1-.759 1.696 2.174 2.174 0 0 1-1.652.714c-.654 0-1.22-.238-1.696-.714s-.714-1.042-.714-1.696c0-.655.238-1.22.714-1.697.476-.476 1.042-.714 1.696-.714.655 0 1.22.238 1.697.714.476.476.714 1.042.714 1.697zm6.786 2.41C39.97 13.363 40 16.131 40 20c0 3.869-.045 6.652-.134 8.348-.09 1.697-.342 3.17-.759 4.42a10.407 10.407 0 0 1-2.455 3.884 10.407 10.407 0 0 1-3.884 2.455c-1.25.417-2.723.67-4.42.76C26.652 39.954 23.87 40 20 40c-3.869 0-6.652-.045-8.348-.134-1.697-.09-3.17-.372-4.42-.848a9.517 9.517 0 0 1-3.884-2.366 10.407 10.407 0 0 1-2.455-3.884c-.417-1.25-.67-2.723-.76-4.42C.046 26.652 0 23.87 0 20c0-3.869.045-6.652.134-8.348.09-1.697.342-3.17.759-4.42a10.407 10.407 0 0 1 2.455-3.884A10.407 10.407 0 0 1 7.232.893c1.25-.417 2.723-.67 4.42-.76C13.348.046 16.13 0 20 0c3.869 0 6.652.045 8.348.134 1.697.09 3.17.342 4.42.759a10.407 10.407 0 0 1 3.884 2.455 10.407 10.407 0 0 1 2.455 3.884c.417 1.25.685 2.738.804 4.464zm-4.286 20.09c.357-1.012.595-2.62.714-4.822.06-1.31.09-3.154.09-5.535V18.57c0-2.44-.03-4.285-.09-5.535-.119-2.262-.357-3.87-.714-4.822-.714-1.845-1.994-3.125-3.84-3.839-.952-.357-2.559-.595-4.82-.714-1.31-.06-3.155-.09-5.536-.09H18.57c-2.38 0-4.226.03-5.535.09-2.203.119-3.81.357-4.822.714-1.845.714-3.125 1.994-3.839 3.84-.357.952-.595 2.559-.714 4.82-.06 1.31-.09 3.155-.09 5.536v2.858c0 2.38.03 4.226.09 5.535.119 2.203.357 3.81.714 4.822.774 1.845 2.054 3.125 3.84 3.839 1.011.357 2.618.595 4.82.714 1.31.06 3.155.09 5.536.09h2.858c2.44 0 4.285-.03 5.535-.09 2.262-.119 3.87-.357 4.822-.714 1.845-.774 3.125-2.054 3.839-3.84z"/>
</svg>
