<svg xmlns="http://www.w3.org/2000/svg" width="40" height="40" viewBox="0 0 40 40">
    <path fill="#FFF" fill-rule="evenodd" d="M35.714 0c1.19 0 2.203.417 3.036 1.25.833.833 1.25 1.845 1.25 3.036v31.428c0 1.19-.417 2.203-1.25 3.036-.833.833-1.845 1.25-3.036 1.25H4.286c-1.19 0-2.203-.417-3.036-1.25C.417 37.917 0 36.905 0 35.714V4.286c0-1.19.417-2.203 1.25-3.036C2.083.417 3.095 0 4.286 0h31.428zM31.34 14.196a12.99 12.99 0 0 0 2.947-3.035 11.94 11.94 0 0 1-3.393.893c1.25-.774 2.113-1.846 2.59-3.215-1.191.715-2.441 1.19-3.75 1.429-1.132-1.25-2.53-1.875-4.197-1.875a5.75 5.75 0 0 0-3.26.982 5.92 5.92 0 0 0-2.187 2.634c-.476 1.101-.565 2.306-.268 3.616-2.44-.119-4.702-.73-6.785-1.83a17.617 17.617 0 0 1-5.357-4.33 5.54 5.54 0 0 0-.804 2.901c0 1.042.238 1.994.714 2.857a5.775 5.775 0 0 0 1.965 2.098 6.097 6.097 0 0 1-2.679-.803v.09c0 1.428.446 2.678 1.34 3.75a5.94 5.94 0 0 0 3.392 2.053c-.833.178-1.726.208-2.678.089a5.465 5.465 0 0 0 2.053 2.902 5.59 5.59 0 0 0 3.393 1.116c-2.143 1.667-4.554 2.5-7.232 2.5H5.714c2.738 1.726 5.744 2.59 9.018 2.59 3.393 0 6.429-.864 9.107-2.59 2.381-1.548 4.256-3.66 5.625-6.34 1.25-2.5 1.875-5.089 1.875-7.767v-.715z"/>
</svg>
